# xmcd
#
# Track frame offsets: 
#        150
#        11524
#        24965
#        41382
#        71392
#        89704
#        109263
#        128621
#        144429
#        157344
#        177336
#        193943
#        200887
#        221701
#        240387
#        253941
#        273862
#        288765
#        320628
#        341703
#
# Disc length: 4721 seconds
#
# Revision: 0
# Processed by: cddbd v1.5.2PL0 Copyright (c) Steve Scherf et al.
# Submitted via: ExactAudioCopy v1.0b4
#
DISCID=31126f14
DTITLE=Curtis King Band - Steam Train Blues
DYEAR=2015
DGENRE=Blues
TTITLE0=Memphis Blues
TTITLE1=My Baby's So Fine (Feat. Matthew 'Cadillac' Cooper)
TTITLE2=Best As I Can (Feat. Erick Swackhammer)
TTITLE3=Take My Hand (A Song Of Hope For The Victims Of Agent Orange)
TTITLE4=Walkin' Away From You
TTITLE5=Does It Feel Alright  (Feat. Matthew 'Cadillac' Cooper)
TTITLE6=Steam Train Blues (Feat. John Chee)
TTITLE7=Meet Me In Harlem (Feat. Matthew 'Cadillac' Cooper and Clinton C
TTITLE7=arnegie)
TTITLE8=Panic (Feat. Erick Swackhammer)
TTITLE9=Hey Yeah (Feat. Matthew 'Cadillac' Cooper)
TTITLE10=Saigon Shakedown (Feat. Erick Swackhammer)
TTITLE11=Connelsville Station (Song For Mom)
TTITLE12=Here I Come With The Blues (Feat. Matthew 'Cadillac' Cooper)
TTITLE13=White Horses (Feat. Erick Swackhammer)
TTITLE14=Mountain Train
TTITLE15=Toast And Jam With The Snake (Feat. Erick Swackhammer and Jake 
TTITLE15=The Snake)
TTITLE16=The Curtis King Band (Feat. Howard Mr. Fingers Rosser)
TTITLE17=Tides Of Sorrow (Feat. Uwe Vogel)
TTITLE18=Freight Train (Feat. Erick Swackhammer)
TTITLE19=Tian Mi Bei Jing (Feat. Matthew 'Cadillac' Cooper)
EXTD=
EXTT0=
EXTT1=
EXTT2=
EXTT3=
EXTT4=
EXTT5=
EXTT6=
EXTT7=
EXTT8=
EXTT9=
EXTT10=
EXTT11=
EXTT12=
EXTT13=
EXTT14=
EXTT15=
EXTT16=
EXTT17=
EXTT18=
EXTT19=
PLAYORDER=
